<svg width="36" height="73" viewBox="0 0 36 73" fill="none" xmlns="http://www.w3.org/2000/svg">
<path d="M12.3049 2.08344C12.4668 3.86389 13.6561 5.3475 13.7187 7.16266C13.8011 9.55106 14.2129 11.9694 14.5565 14.3364C14.9875 17.3051 15.1166 20.0781 15.9703 22.924C16.462 24.5629 15.8658 26.4723 16.1798 28.1603C16.8754 31.8989 16.4662 35.7275 17.1223 39.4183C17.6666 42.4801 16.9829 45.8073 17.9601 48.739" stroke="#2A2420" stroke-width="4" stroke-linecap="round"/>
<path d="M2.87958 47.3252C5.36573 52.2975 8.23815 57.118 10.6293 62.1177C11.6036 64.1549 12.5787 66.3065 14.2424 67.8777C15.9295 69.4711 16.2745 71.6542 17.7245 68.9773C18.9141 66.7812 20.8106 65.4699 22.2016 63.453C23.2979 61.8633 24.299 60.2197 25.3957 58.6356C28.2036 54.5797 31.2934 50.0997 33.0407 45.4401" stroke="#2A2420" stroke-width="4" stroke-linecap="round"/>
</svg>
